# 3ds Max Wavefront OBJ Exporter v0.97b - (c)2007 guruware
# File Created: 21.01.2014 07:46:39

mtllib TableSq_2_4m_black_noMap.mtl

#
# object tableSQ_2_4
#

v  -47.2441 28.8164 44.6441
v  -45.2213 28.8164 -47.1293
v  -44.6441 28.8164 -47.2441
v  44.6441 28.8164 -47.2441
v  47.2441 28.8164 -44.6441
v  45.2213 28.8164 47.1293
v  44.6441 28.8164 47.2441
v  -44.6441 28.8164 47.2441
v  -44.6328 31.5131 47.1293
v  46.8408 31.5131 45.1338
v  46.9441 31.5131 44.6145
v  46.9441 31.5131 -44.6145
v  44.6328 31.5131 -47.1293
v  -46.8408 31.5131 -45.1338
v  -46.9441 31.5131 -44.6145
v  -46.9441 31.5131 44.6145
v  44.6441 31.2131 47.2441
v  -44.6441 31.2131 47.2441
v  47.2441 28.8164 44.6441
v  47.2441 31.2131 -44.6441
v  47.2441 31.2131 44.6441
v  -44.6441 31.2131 -47.2441
v  44.6441 31.2131 -47.2441
v  -47.2441 28.8164 -44.6441
v  -47.2441 31.2131 44.6441
v  -47.2441 31.2131 -44.6441
v  -46.9346 28.8164 -45.6912
v  -46.6077 28.8164 -46.1805
v  -46.1805 28.8164 -46.6077
v  46.9346 28.8164 45.6912
v  46.6077 28.8164 46.1805
v  46.1805 28.8164 46.6077
v  45.5491 31.5131 46.6688
v  45.9893 31.5131 46.3747
v  46.3747 31.5131 45.9893
v  -45.5491 31.5131 -46.6688
v  -45.9893 31.5131 -46.3747
v  -46.3747 31.5131 -45.9893
v  -46.1805 28.8164 46.6077
v  -46.6077 28.8164 46.1805
v  -46.9346 28.8164 45.6912
v  46.1805 28.8164 -46.6077
v  46.6077 28.8164 -46.1805
v  46.9346 28.8164 -45.6912
v  -46.3747 31.5131 45.9893
v  -45.9893 31.5131 46.3747
v  -45.5491 31.5131 46.6688
v  46.3747 31.5131 -45.9893
v  45.9893 31.5131 -46.3747
v  45.5491 31.5131 -46.6688
v  46.6077 31.2131 46.1805
v  46.1805 31.2131 46.6077
v  -46.1805 31.2131 46.6077
v  -46.6077 31.2131 46.1805
v  46.1805 31.2131 -46.6077
v  46.6077 31.2131 -46.1805
v  -46.6077 31.2131 -46.1805
v  -46.1805 31.2131 -46.6077
v  -47.1293 28.8164 -45.2213
v  47.1293 28.8164 45.2213
v  44.6328 31.5131 47.1293
v  45.1338 31.5131 46.8408
v  -44.6328 31.5131 -47.1293
v  -45.1338 31.5131 -46.8408
v  -45.6912 28.8164 -46.9346
v  45.2213 28.8164 -47.1293
v  45.6912 28.8164 -46.9346
v  45.6912 28.8164 46.9346
v  -45.2213 28.8164 47.1293
v  -45.6912 28.8164 46.9346
v  46.6688 31.5131 45.5491
v  46.8408 31.5131 -45.1338
v  46.6688 31.5131 -45.5491
v  -46.6688 31.5131 -45.5491
v  -46.8408 31.5131 45.1338
v  -46.6688 31.5131 45.5491
v  45.6912 31.2131 46.9346
v  45.2213 31.2131 47.1293
v  -45.2213 31.2131 47.1293
v  -45.6912 31.2131 46.9346
v  46.9346 31.2131 -45.6912
v  47.1293 31.2131 -45.2213
v  47.1293 28.8164 -45.2213
v  47.1293 31.2131 45.2213
v  46.9346 31.2131 45.6912
v  -45.6912 31.2131 -46.9346
v  -45.2213 31.2131 -47.1293
v  45.2213 31.2131 -47.1293
v  45.6912 31.2131 -46.9346
v  -46.9346 31.2131 45.6912
v  -47.1293 31.2131 45.2213
v  -47.1293 28.8164 45.2213
v  -47.1293 31.2131 -45.2213
v  -46.9346 31.2131 -45.6912
v  -45.1338 31.5131 46.8408
v  45.1338 31.5131 -46.8408
v  -39.3701 26.7703 39.3701
v  -39.3701 26.7703 -39.3701
v  39.3701 26.7703 -39.3701
v  39.3701 26.7703 39.3701
v  -39.3701 28.7388 39.3701
v  39.3701 28.7388 39.3701
v  39.3701 28.7388 -39.3701
v  -39.3701 28.7388 -39.3701
v  37.4224 0.0000 39.1696
v  37.4224 0.0000 37.6011
v  37.6224 0.0000 37.4011
v  39.1909 0.0000 37.4011
v  39.3909 0.0000 37.6011
v  39.3909 0.0000 39.1696
v  39.1909 0.0000 39.3696
v  37.6224 0.0000 39.3696
v  37.6224 28.8304 39.3696
v  39.1909 28.8304 39.3696
v  39.3909 28.8304 39.1696
v  39.3909 28.8304 37.6011
v  39.1909 28.8304 37.4011
v  37.6224 28.8304 37.4011
v  37.4224 28.8304 37.6011
v  37.4224 28.8304 39.1696
v  -39.3580 0.0000 39.1696
v  -39.3580 0.0000 37.6011
v  -39.1580 0.0000 37.4011
v  -37.5895 0.0000 37.4011
v  -37.3895 0.0000 37.6011
v  -37.3895 0.0000 39.1696
v  -37.5895 0.0000 39.3696
v  -39.1580 0.0000 39.3696
v  -39.1580 28.8304 39.3696
v  -37.5895 28.8304 39.3696
v  -37.3895 28.8304 39.1696
v  -37.3895 28.8304 37.6011
v  -37.5895 28.8304 37.4011
v  -39.1580 28.8304 37.4011
v  -39.3580 28.8304 37.6011
v  -39.3580 28.8304 39.1696
v  -39.1732 2.0491 39.3701
v  39.1732 2.0491 39.3701
v  39.1732 3.6176 39.3701
v  -39.1732 3.6176 39.3701
v  39.3701 2.0491 39.1732
v  39.3701 2.0491 -39.1732
v  39.3701 3.6176 -39.1732
v  39.3701 3.6176 39.1732
v  39.1732 2.0491 -39.3701
v  -39.1732 2.0491 -39.3701
v  -39.1732 3.6176 -39.3701
v  39.1732 3.6176 -39.3701
v  -39.3701 2.0491 -39.1732
v  -39.3701 2.0491 39.1732
v  -39.3701 3.6176 39.1732
v  -39.3701 3.6176 -39.1732
v  -39.1701 1.8485 39.1701
v  -39.1701 1.8485 -39.1701
v  -37.7016 1.8437 -37.7016
v  -37.7016 1.8437 37.7016
v  39.1701 1.8485 -39.1701
v  37.7016 1.8437 -37.7016
v  39.1701 1.8485 39.1701
v  37.5016 1.8430 37.5016
v  -37.3016 1.8430 37.5016
v  -39.1701 3.8183 39.1701
v  39.1701 3.8183 39.1701
v  37.7016 3.8231 37.7016
v  -37.7016 3.8231 37.7016
v  39.1701 3.8183 -39.1701
v  37.7016 3.8231 -37.7016
v  -39.1701 3.8183 -39.1701
v  -37.7016 3.8231 -37.7016
v  -37.5016 2.0430 37.5016
v  -37.5016 2.0430 -37.5016
v  -37.5016 2.8334 -37.5016
v  -37.5016 2.8334 37.5016
v  37.5016 2.0430 -37.5016
v  37.5016 2.8334 -37.5016
v  37.5016 1.8430 -37.3016
v  37.5016 2.8334 37.5016
v  -37.5016 3.6237 37.5016
v  37.5016 3.6237 37.5016
v  37.5016 3.6237 -37.5016
v  -37.5016 3.6237 -37.5016
v  37.4224 0.0000 -37.5901
v  37.4224 0.0000 -39.1586
v  37.6224 0.0000 -39.3586
v  39.1909 0.0000 -39.3586
v  39.3909 0.0000 -39.1586
v  39.3909 0.0000 -37.5901
v  39.1909 0.0000 -37.3901
v  37.6224 0.0000 -37.3901
v  37.6224 28.8304 -37.3901
v  39.1909 28.8304 -37.3901
v  39.3909 28.8304 -37.5901
v  39.3909 28.8304 -39.1586
v  39.1909 28.8304 -39.3586
v  37.6224 28.8304 -39.3586
v  37.4224 28.8304 -39.1586
v  37.4224 28.8304 -37.5901
v  -39.3580 0.0000 -37.5901
v  -39.3580 0.0000 -39.1586
v  -39.1580 0.0000 -39.3586
v  -37.5895 0.0000 -39.3586
v  -37.3895 0.0000 -39.1586
v  -37.3895 0.0000 -37.5901
v  -37.5895 0.0000 -37.3901
v  -39.1580 0.0000 -37.3901
v  -39.1580 28.8304 -37.3901
v  -37.5895 28.8304 -37.3901
v  -37.3895 28.8304 -37.5901
v  -37.3895 28.8304 -39.1586
v  -37.5895 28.8304 -39.3586
v  -39.1580 28.8304 -39.3586
v  -39.3580 28.8304 -39.1586
v  -39.3580 28.8304 -37.5901
v  -39.2565 1.9352 39.2565
v  39.2565 1.9352 39.2565
v  -39.2565 3.7315 39.2565
v  39.2565 3.7315 39.2565
v  39.2565 1.9352 -39.2565
v  39.2565 3.7315 -39.2565
v  -39.2565 1.9352 -39.2565
v  -39.2565 3.7315 -39.2565
# 221 vertices

vn 0.0000 -1.0000 -0.0000
vn 0.0000 1.0000 -0.0000
vn 0.0000 0.0000 1.0000
vn 1.0000 0.0000 -0.0000
vn 0.0000 -0.0000 -1.0000
vn -1.0000 0.0000 -0.0000
vn 0.7071 0.0000 0.7071
vn -0.7071 0.0000 0.7071
vn 0.7071 0.0000 -0.7071
vn -0.7071 0.0000 -0.7071
vn 0.3827 0.0000 0.9239
vn -0.3827 0.0000 0.9239
vn 0.9239 -0.0000 -0.3827
vn 0.9239 0.0000 0.3827
vn -0.3827 -0.0000 -0.9239
vn 0.3827 -0.0000 -0.9239
vn -0.9239 0.0000 0.3827
vn -0.9239 -0.0000 -0.3827
vn 0.1951 0.0000 0.9808
vn -0.1951 0.0000 0.9808
vn 0.9808 -0.0000 -0.1951
vn 0.9808 0.0000 0.1951
vn -0.1951 -0.0000 -0.9808
vn 0.1951 -0.0000 -0.9808
vn -0.9808 0.0000 0.1951
vn -0.9808 -0.0000 -0.1951
vn 0.5556 0.0000 0.8315
vn 0.8315 0.0000 0.5556
vn -0.8315 0.0000 0.5556
vn -0.5556 0.0000 0.8315
vn 0.8315 0.0000 -0.5556
vn 0.5556 -0.0000 -0.8315
vn -0.5556 -0.0000 -0.8315
vn -0.8315 0.0000 -0.5556
vn 0.7071 0.7071 -0.0000
vn -0.7071 0.7071 -0.0000
vn 0.0000 0.3574 0.9340
vn 0.0000 0.3574 -0.9340
vn 0.5000 0.7071 0.5000
vn -0.5000 0.7071 -0.5000
vn -0.5000 0.7071 0.5000
vn 0.5000 0.7071 -0.5000
vn 0.2706 0.7071 0.6533
vn -0.2706 0.7071 -0.6533
vn 0.6533 0.7071 0.2706
vn 0.6533 0.7071 -0.2706
vn -0.6533 0.7071 -0.2706
vn -0.6533 0.7071 0.2706
vn -0.2706 0.7071 0.6533
vn 0.2706 0.7071 -0.6533
vn 0.2887 0.5664 0.7719
vn -0.2887 0.5664 -0.7719
vn 0.6935 0.7071 0.1380
vn 0.6935 0.7071 -0.1380
vn -0.6935 0.7071 -0.1380
vn -0.6935 0.7071 0.1380
vn -0.2887 0.5664 0.7719
vn 0.2887 0.5664 -0.7719
vn 0.3928 0.7071 0.5879
vn 0.5879 0.7071 0.3928
vn -0.3929 0.7071 -0.5879
vn -0.5879 0.7071 -0.3929
vn -0.3928 0.7071 0.5879
vn -0.5879 0.7071 0.3928
vn 0.3929 0.7071 -0.5879
vn 0.5879 0.7071 -0.3929
vn 0.0000 0.0000 -1.0000
vn -0.0033 -1.0000 -0.0000
vn 0.0000 -1.0000 -0.0033
vn 0.0033 -1.0000 0.0000
vn 0.0000 -1.0000 0.0033
vn 0.0000 1.0000 0.0033
vn 0.0033 1.0000 0.0000
vn 0.0000 1.0000 -0.0033
vn -0.0033 1.0000 0.0000
vn -0.4087 -0.4087 -0.8161
vn -0.8161 -0.4087 -0.4087
vn 0.0033 -1.0000 -0.0000
vn 0.0000 -0.7060 0.7083
vn -0.0000 0.7060 0.7083
vn 0.0000 0.7060 0.7083
vn 0.7083 -0.7060 -0.0000
vn 0.7083 0.7060 0.0000
vn 0.7083 0.7060 -0.0000
vn -0.0000 -0.7060 -0.7083
vn 0.0000 -0.7060 -0.7083
vn 0.0000 0.7060 -0.7083
vn -0.7083 -0.7060 0.0000
vn -0.7083 -0.7060 -0.0000
vn -0.7083 0.7060 -0.0000
vn 0.7060 -0.7083 -0.0000
vn 0.0000 -0.7083 0.7060
vn 0.0000 0.7083 -0.7060
vn -0.7060 0.7083 0.0000
vn 0.0000 0.7083 0.7060
vn 0.7060 0.7083 0.0000
vn 0.6950 -0.1843 0.6950
vn 0.6950 0.1843 0.6950
vn 0.6950 -0.1843 -0.6950
vn 0.6950 0.1843 -0.6950
vn -0.6950 -0.1843 -0.6950
vn -0.6950 0.1843 -0.6950
vn -0.6950 -0.1843 0.6950
vn -0.6950 0.1843 0.6950
# 104 vertex normals

vt 1.0000 0.0000 0.0000
vt 1.0064 0.9988 0.0000
vt 1.0000 1.0000 0.0000
vt 0.0000 1.0000 0.0000
vt -0.0064 0.0012 0.0000
vt 0.0000 0.0000 0.0000
vt 0.9989 -0.0058 0.0000
vt 0.0011 1.0058 0.0000
vt 0.5000 0.5000 0.0000
vt 1.3793 1.3793 0.0000
vt -0.3793 -0.3793 0.0000
vt 1.3812 -0.3812 0.0000
vt -0.3812 1.3812 0.0000
vt 1.2877 1.2877 0.0000
vt -0.2877 -0.2877 0.0000
vt 0.9807 0.0193 0.0000
vt 0.0193 0.9807 0.0000
vt 0.0277 0.0277 0.0000
vt 0.9723 0.9723 0.0000
vt 1.1131 0.8869 0.0000
vt -0.1131 0.1131 0.0000
vt 0.8869 -0.1131 0.0000
vt 0.1131 1.1131 0.0000
vt 0.9974 0.0000 0.0000
vt 0.6191 0.3809 0.0000
vt -0.3903 1.3903 0.0000
vt -0.3812 0.3809 0.0000
vt 0.4990 0.5010 0.0000
vt 1.3903 -0.3903 0.0000
vt 1.3818 -0.3818 0.0000
vt 0.3808 1.3811 0.0000
vt 0.5010 0.5010 0.0000
vt -0.0000 0.0000 0.0000
vt 0.3808 0.3808 0.0000
# 34 texture coords

g tableSQ_2_4
usemtl wire_154185229
s 2
f 1/1/1 2/2/1 3/3/1 4/4/1 
f 5/4/1 6/5/1 7/6/1 8/1/1 
s 4
f 9/6/2 10/7/2 11/1/2 12/3/2 
f 13/3/2 14/8/2 15/4/2 16/6/2 
s 8
f 8/6/3 7/1/3 17/3/3 18/4/3 
s 16
f 19/6/4 5/1/4 20/3/4 21/4/4 
s 32
f 4/6/5 3/1/5 22/3/5 23/4/5 
s 64
f 24/6/6 1/1/6 25/3/6 26/4/6 
s 2
f 1/9/1 27/10/1 28/3/1 29/9/1 
f 5/9/1 30/11/1 31/6/1 32/9/1 
s 4
f 9/9/2 33/12/2 34/1/2 35/9/2 
f 13/9/2 36/13/2 37/4/2 38/9/2 
s 2
f 39/1/1 40/9/1 41/9/1 5/9/1 
f 42/4/1 43/9/1 44/9/1 1/9/1 
s 4
f 45/6/2 46/9/2 47/9/2 13/9/2 
f 48/3/2 49/9/2 50/9/2 9/9/2 
s off
f 32/9/7 31/6/7 51/9/7 52/1/7 
f 40/9/8 39/1/8 53/9/8 54/6/8 
f 43/9/9 42/4/9 55/9/9 56/3/9 
f 29/9/10 28/3/10 57/9/10 58/4/10 
s 2
f 1/9/1 24/14/1 59/3/1 27/9/1 
f 5/9/1 19/15/1 60/6/1 30/9/1 
s 4
f 9/9/2 61/9/2 62/9/2 33/1/2 
f 13/9/2 63/9/2 64/9/2 36/4/2 
s 2
f 1/9/1 29/9/1 65/9/1 2/9/1 
f 1/9/1 4/4/1 66/9/1 67/16/1 
f 5/9/1 32/9/1 68/9/1 6/9/1 
f 5/9/1 8/1/1 69/9/1 70/17/1 
s 4
f 9/9/2 35/9/2 71/9/2 10/9/2 
f 9/9/2 12/3/2 72/9/2 73/18/2 
f 13/9/2 38/9/2 74/9/2 14/9/2 
f 13/9/2 16/6/2 75/9/2 76/19/2 
s off
f 77/1/11 78/9/11 6/9/11 68/9/11 
f 70/9/12 69/1/12 79/9/12 80/9/12 
f 81/9/13 82/3/13 83/9/13 44/9/13 
f 30/9/14 60/6/14 84/9/14 85/9/14 
f 86/4/15 87/9/15 2/9/15 65/9/15 
f 67/9/16 66/4/16 88/9/16 89/9/16 
f 90/9/17 91/6/17 92/9/17 41/9/17 
f 27/9/18 59/3/18 93/9/18 94/9/18 
s 2
f 41/9/1 92/9/1 1/9/1 5/9/1 
f 44/9/1 83/9/1 5/9/1 1/9/1 
s 4
f 47/9/2 95/9/2 9/9/2 13/9/2 
f 50/9/2 96/9/2 13/9/2 9/9/2 
s off
f 78/9/19 17/9/19 7/9/19 6/9/19 
f 69/9/20 8/1/20 18/9/20 79/9/20 
f 82/9/21 20/3/21 5/9/21 83/9/21 
f 60/9/22 19/6/22 21/9/22 84/9/22 
f 87/9/23 22/9/23 3/9/23 2/9/23 
f 66/9/24 4/4/24 23/9/24 88/9/24 
f 91/9/25 25/6/25 1/9/25 92/9/25 
f 59/9/26 24/3/26 26/9/26 93/9/26 
s 2
f 5/9/1 70/9/1 39/9/1 
f 1/9/1 67/9/1 42/9/1 
s 4
f 13/9/2 76/9/2 45/9/2 
f 9/9/2 73/9/2 48/9/2 
s off
f 52/9/27 77/1/27 68/9/27 32/9/27 
f 85/9/28 51/9/28 31/9/28 30/9/28 
f 41/9/29 40/9/29 54/9/29 90/9/29 
f 80/9/30 53/9/30 39/9/30 70/9/30 
f 44/9/31 43/9/31 56/9/31 81/9/31 
f 89/9/32 55/9/32 42/9/32 67/9/32 
f 58/9/33 86/4/33 65/9/33 29/9/33 
f 94/9/34 57/9/34 28/9/34 27/9/34 
f 20/3/35 12/9/35 11/9/35 21/9/35 
f 25/6/36 16/9/36 15/9/36 26/9/36 
f 17/9/37 61/9/37 9/9/37 18/9/37 
f 22/9/38 63/9/38 13/9/38 23/9/38 
f 51/9/39 35/9/39 34/9/39 52/9/39 
f 57/9/40 38/9/40 37/9/40 58/9/40 
f 53/9/41 46/9/41 45/9/41 54/9/41 
f 55/9/42 49/9/42 48/9/42 56/9/42 
f 77/1/43 33/9/43 62/9/43 78/9/43 
f 86/4/44 36/9/44 64/9/44 87/9/44 
f 84/9/45 10/9/45 71/9/45 85/9/45 
f 81/9/46 73/9/46 72/9/46 82/9/46 
f 93/9/47 14/9/47 74/9/47 94/9/47 
f 90/9/48 76/9/48 75/9/48 91/9/48 
f 79/9/49 95/9/49 47/9/49 80/9/49 
f 88/9/50 96/9/50 50/9/50 89/9/50 
f 78/9/51 62/9/51 61/9/51 17/9/51 
f 87/9/52 64/9/52 63/9/52 22/9/52 
f 10/9/53 84/9/53 21/9/53 11/9/53 
f 12/9/54 20/3/54 82/9/54 72/9/54 
f 14/9/55 93/9/55 26/9/55 15/9/55 
f 16/9/56 25/6/56 91/9/56 75/9/56 
f 95/9/57 79/9/57 18/9/57 9/9/57 
f 96/9/58 88/9/58 23/9/58 13/9/58 
f 33/9/59 77/1/59 52/9/59 34/9/59 
f 35/9/60 51/9/60 85/9/60 71/9/60 
f 36/9/61 86/4/61 58/9/61 37/9/61 
f 38/9/62 57/9/62 94/9/62 74/9/62 
f 46/9/63 53/9/63 80/9/63 47/9/63 
f 76/9/64 90/9/64 54/9/64 45/9/64 
f 49/9/65 55/9/65 89/9/65 50/9/65 
f 73/9/66 81/9/66 56/9/66 48/9/66 
s 2
f 97/1/1 98/3/1 99/4/1 100/6/1 
s 4
f 101/6/2 102/1/2 103/3/2 104/4/2 
s 8
f 97/6/3 100/1/3 102/3/3 101/4/3 
s 16
f 100/6/4 99/1/4 103/3/4 102/4/4 
s 32
f 99/6/67 98/1/67 104/3/67 103/4/67 
s 64
f 98/6/6 97/1/6 101/3/6 104/4/6 
s 2
f 105/1/1 106/20/1 107/3/1 108/4/1 
f 109/4/1 110/21/1 111/6/1 112/1/1 
s 4
f 113/6/2 114/22/2 115/1/2 116/3/2 
f 117/3/2 118/23/2 119/4/2 120/6/2 
s 8
f 112/6/3 111/1/3 114/3/3 113/4/3 
s 16
f 110/6/4 109/1/4 116/3/4 115/4/4 
s 32
f 108/6/67 107/1/67 118/3/67 117/4/67 
s 64
f 106/6/6 105/1/6 120/3/6 119/4/6 
s 2
f 121/1/1 122/20/1 123/3/1 124/4/1 
f 125/4/1 126/21/1 127/6/1 128/1/1 
s 4
f 129/6/2 130/22/2 131/1/2 132/3/2 
f 133/3/2 134/23/2 135/4/2 136/6/2 
s 8
f 128/6/3 127/1/3 130/3/3 129/4/3 
s 16
f 126/6/4 125/1/4 132/3/4 131/4/4 
s 32
f 124/6/67 123/1/67 134/3/67 133/4/67 
s 64
f 122/6/6 121/1/6 136/3/6 135/4/6 
s 8
f 137/6/3 138/1/3 139/3/3 140/4/3 
s 16
f 141/6/4 142/1/4 143/3/4 144/4/4 
s 32
f 145/6/67 146/1/67 147/3/67 148/4/67 
s 64
f 149/6/6 150/1/6 151/3/6 152/4/6 
s off
f 153/1/68 154/3/68 155/3/68 156/1/68 
f 154/3/69 157/4/69 158/4/69 155/3/69 
f 157/4/70 159/6/70 160/6/70 158/4/70 
f 159/6/71 153/1/71 156/1/71 161/24/71 
f 161/1/71 160/6/71 159/6/71 
f 162/6/72 163/1/72 164/1/72 165/6/72 
f 163/1/73 166/3/73 167/3/73 164/1/73 
f 166/3/74 168/4/74 169/4/74 167/3/74 
f 168/4/75 162/6/75 165/6/75 169/4/75 
f 170/1/4 171/3/4 172/3/4 173/1/4 
f 171/3/3 174/4/3 175/4/3 172/3/3 
f 176/4/6 160/6/6 177/6/6 174/9/6 
f 177/6/6 175/4/6 174/4/6 
f 160/6/67 161/9/67 170/1/67 173/1/67 
f 173/1/67 177/6/67 160/6/67 
f 178/6/67 179/1/67 177/1/67 173/6/67 
f 179/1/6 180/3/6 175/3/6 177/1/6 
f 180/3/3 181/4/3 172/4/3 175/3/3 
f 181/4/4 178/6/4 173/6/4 172/4/4 
s 2
f 182/1/1 183/20/1 184/3/1 185/4/1 
f 186/4/1 187/21/1 188/6/1 189/1/1 
s 4
f 190/6/2 191/22/2 192/1/2 193/3/2 
f 194/3/2 195/23/2 196/4/2 197/6/2 
s 8
f 189/6/3 188/1/3 191/3/3 190/4/3 
s 16
f 187/6/4 186/1/4 193/3/4 192/4/4 
s 32
f 185/6/67 184/1/67 195/3/67 194/4/67 
s 64
f 183/6/6 182/1/6 197/3/6 196/4/6 
s 2
f 198/1/1 199/20/1 200/3/1 201/4/1 
f 202/4/1 203/21/1 204/6/1 205/1/1 
s 4
f 206/6/2 207/22/2 208/1/2 209/3/2 
f 210/3/2 211/23/2 212/4/2 213/6/2 
s 8
f 205/6/3 204/1/3 207/3/3 206/4/3 
s 16
f 203/6/4 202/1/4 209/3/4 208/4/4 
s 32
f 201/6/67 200/1/67 211/3/67 210/4/67 
s 64
f 199/6/6 198/1/6 213/3/6 212/4/6 
s off
f 170/1/76 161/9/76 156/9/76 
f 176/4/77 174/9/77 158/9/77 
f 160/6/78 176/4/78 158/9/78 
s 2
f 112/1/1 105/9/1 108/4/1 109/9/1 
s 4
f 120/6/2 113/9/2 116/3/2 117/9/2 
s off
f 111/9/7 110/6/7 115/9/7 114/1/7 
f 105/9/8 112/1/8 113/9/8 120/6/8 
f 109/9/9 108/4/9 117/9/9 116/3/9 
f 107/9/10 106/3/10 119/9/10 118/4/10 
s 2
f 128/1/1 121/9/1 124/4/1 125/9/1 
s 4
f 136/6/2 129/9/2 132/3/2 133/9/2 
s off
f 127/9/7 126/6/7 131/9/7 130/1/7 
f 121/9/8 128/1/8 129/9/8 136/6/8 
f 125/9/9 124/4/9 133/9/9 132/3/9 
f 123/9/10 122/3/10 135/9/10 134/4/10 
f 214/25/79 153/1/79 215/1/79 138/9/79 
f 159/1/79 215/9/79 153/9/79 
f 162/26/80 216/4/80 140/9/80 163/1/80 
f 217/9/81 163/3/81 140/9/81 140/9/81 
f 215/27/82 159/6/82 218/1/82 142/9/82 
f 157/1/82 218/9/82 159/1/82 
f 163/3/83 217/9/83 144/3/83 166/3/83 
f 219/9/84 166/28/84 144/4/84 143/9/84 
f 154/29/85 220/1/85 146/9/85 157/4/85 
f 218/1/86 157/30/86 146/1/86 145/9/86 
f 221/31/87 168/4/87 219/9/87 148/3/87 
f 166/3/87 219/9/87 168/3/87 
f 153/32/88 214/9/88 150/9/88 154/3/88 
f 220/9/89 154/1/89 150/33/89 150/6/89 
f 216/34/90 162/6/90 221/9/90 152/3/90 
f 168/3/90 221/9/90 162/4/90 
f 170/1/91 156/9/91 155/9/91 171/3/91 
f 171/3/92 155/9/92 158/9/92 174/9/92 
f 178/6/93 165/9/93 164/9/93 179/1/93 
f 179/1/94 164/9/94 167/9/94 180/3/94 
f 169/9/95 181/4/95 180/3/95 167/9/95 
f 165/9/96 178/6/96 181/4/96 169/9/96 
s 2
f 189/1/1 182/9/1 185/4/1 186/9/1 
s 4
f 197/6/2 190/9/2 193/3/2 194/9/2 
s off
f 188/9/7 187/6/7 192/9/7 191/1/7 
f 182/9/8 189/1/8 190/9/8 197/6/8 
f 186/9/9 185/4/9 194/9/9 193/3/9 
f 184/9/10 183/3/10 196/9/10 195/4/10 
s 2
f 205/1/1 198/9/1 201/4/1 202/9/1 
s 4
f 213/6/2 206/9/2 209/3/2 210/9/2 
s off
f 204/9/7 203/6/7 208/9/7 207/1/7 
f 198/9/8 205/1/8 206/9/8 213/6/8 
f 202/9/9 201/4/9 210/9/9 209/3/9 
f 200/9/10 199/3/10 212/9/10 211/4/10 
f 215/1/97 141/9/97 138/9/97 
f 144/3/98 217/9/98 139/9/98 
f 139/9/81 217/9/81 140/4/81 
f 141/9/82 215/1/82 142/1/82 
f 138/9/7 141/9/7 144/3/7 139/9/7 
f 218/1/99 145/9/99 142/9/99 
f 148/3/100 219/9/100 143/9/100 
f 142/9/9 145/9/9 148/3/9 143/9/9 
f 220/1/101 149/9/101 146/9/101 
f 152/3/102 221/9/102 147/9/102 
f 147/9/87 221/9/87 148/4/87 
f 149/9/89 220/1/89 150/6/89 
f 146/9/10 149/9/10 152/3/10 147/9/10 
f 137/6/103 150/9/103 150/9/103 214/9/103 
f 216/4/104 151/9/104 151/9/104 140/9/104 
f 137/6/79 214/9/79 138/1/79 137/6/79 
f 151/9/90 216/4/90 152/4/90 151/9/90 
f 150/9/8 137/6/8 140/9/8 151/9/8 
f 137/6/4 137/9/4 137/9/4 
f 150/1/4 150/9/4 150/9/4 
f 151/3/4 151/9/4 151/9/4 
f 140/4/4 140/9/4 140/9/4 
f 137/9/4 137/9/4 214/6/4 
f 140/4/4 151/3/4 140/9/4 
f 137/9/4 137/6/4 140/9/4 140/9/4 
f 150/9/4 150/9/4 151/3/4 151/9/4 
# 202 polygons - 30 triangles

